<?xml version="1.0" encoding="utf-8"?>
<!-- Generator: Adobe Illustrator 16.0.4, SVG Export Plug-In . SVG Version: 6.00 Build 0)  -->
<!DOCTYPE svg PUBLIC "-//W3C//DTD SVG 1.1//EN" "http://www.w3.org/Graphics/SVG/1.1/DTD/svg11.dtd">
<svg version="1.1" id="Layer_1" xmlns="http://www.w3.org/2000/svg" xmlns:xlink="http://www.w3.org/1999/xlink" x="0px" y="0px"
	 width="200px" height="200px" viewBox="150 256.32 200 200" enable-background="new 150 256.32 200 200" xml:space="preserve">
<rect x="150" y="256.32" fill="#FBA930" width="200" height="200.001"/>
<g>
	<path fill-rule="evenodd" clip-rule="evenodd" fill="#FBFDFE" d="M250.806,277.839c13.614,0.127,25.756,4.463,36.351,12.987
		c12.417,9.988,20.019,22.937,23.245,38.505c2.413,11.629,1.086,22.913-3.029,33.962c-2.784,7.469-6.282,14.588-10.341,21.436
		c-7.418,12.518-16.095,24.093-26.244,34.542c-4.068,4.193-8.418,8.05-13.191,11.466c-4.476,3.209-8.745,3.338-13.321,0.306
		c-3.333-2.208-6.526-4.546-9.556-7.182c-2.854-2.482-13.876-14.313-16.574-17.717c-8.216-10.369-15.542-21.296-21.239-33.262
		c-3.4-7.138-6.111-14.514-7.521-22.335c-0.542-3.004-1.086-6.021-0.972-9.048c0.663-17.455,6.65-32.71,18.909-45.375
		c4.639-4.792,9.908-8.698,15.814-11.704c6.073-3.093,12.518-5.101,19.308-5.972C245.226,278.091,248.001,277.847,250.806,277.839z
		 M219.353,319.742c-7.019,9.929-10.455,29.734,3.146,44.522c6.598,7.174,14.884,11.181,24.569,12.152
		c11.046,1.112,20.619-2.268,28.586-9.955c4.883-4.706,8.429-10.351,10.17-16.934c2.483-9.382,1.286-18.489-3.141-27.037
		c-8.727-16.861-26.148-22.973-41.322-18.64c6.964,6.102,8.869,11.876,6.129,18.567c-2.348,5.738-8.151,9.441-14.278,9.109
		C226.384,331.158,221.436,326.985,219.353,319.742z"/>
	<path fill-rule="evenodd" clip-rule="evenodd" fill="#FBA930" d="M219.353,319.742c2.083,7.243,7.031,11.416,13.86,11.786
		c6.127,0.332,11.93-3.371,14.278-9.109c2.739-6.691,0.834-12.466-6.129-18.567c15.174-4.333,32.596,1.778,41.322,18.64
		c4.427,8.548,5.624,17.655,3.141,27.037c-1.741,6.583-5.287,12.228-10.17,16.934c-7.967,7.688-17.54,11.067-28.586,9.955
		c-9.686-0.972-17.971-4.979-24.569-12.152C208.897,349.477,212.334,329.671,219.353,319.742z"/>
</g>
</svg>
